<svg width="3192" height="1525" viewBox="0 0 3192 1525" fill="none" xmlns="http://www.w3.org/2000/svg">
<path fill-rule="evenodd" clip-rule="evenodd" d="M2440.44 378.034C2399.43 352.245 2627.97 166.466 2678.97 208.57C2748.53 265.987 2697.48 395.401 2678.97 427.505C2661.47 457.872 2631.51 433.553 2601.41 409.122C2585.15 395.925 2568.85 382.696 2554.45 378.034C2528.57 369.652 2512.77 376.009 2498.16 381.887C2481.67 388.524 2466.7 394.548 2440.44 378.034ZM2864 971.158C2878.17 918.335 2766.99 862.217 2748.48 900.635C2738.06 922.287 2763.78 957.932 2770.49 981.157C2777.6 1005.8 2782.49 1022.21 2782.49 1022.21C2782.49 1022.21 2853.94 1008.68 2864 971.158Z" fill="white" fill-opacity="0.4"/>
<path d="M2748.48 900.635C2766.99 862.217 2878.17 918.335 2864 971.158C2853.94 1008.68 2782.49 1022.21 2782.49 1022.21C2782.49 1022.21 2777.6 1005.8 2770.49 981.157C2763.78 957.932 2738.06 922.287 2748.48 900.635Z" fill="#D4EBDC"/>
<path d="M2975.68 1041.77C2976.93 1058.01 2993.52 1060.1 2993.52 1060.1C2993.52 1060.1 3025.52 1157.05 3010.17 1232.82C3010.17 1232.82 3087.09 1205.55 3105.99 1169C3139.65 1103.91 2975.68 1041.77 2975.68 1041.77Z" fill="#D4EBDC"/>
<path d="M2440.44 378.034C2399.43 352.245 2627.97 166.466 2678.97 208.57C2748.53 265.987 2697.48 395.401 2678.97 427.505C2661.47 457.872 2631.51 433.553 2601.41 409.122C2585.15 395.925 2568.85 382.696 2554.45 378.034C2528.57 369.652 2512.77 376.009 2498.16 381.887C2481.67 388.524 2466.7 394.548 2440.44 378.034Z" fill="#D4EBDC"/>
<path d="M313.063 1254.26C308.063 1235.26 344.066 1214.26 344.066 1214.26C344.066 1214.26 313.362 1218.63 299.566 1207.76C288.584 1199.11 281.562 1184.07 289.565 1165.26C299.565 1141.76 342.574 1111.26 379.063 1096.76C431.233 1076.03 482.758 1075.15 510.052 1059.26C535.112 1044.67 518.122 978.414 518.508 915.76C518.508 915.76 435.443 963.499 379.063 987.335C279.453 1029.45 192.657 988.702 112.063 1060.81C51.8885 1114.66 14.3788 1161.34 12.5633 1242.06C10.1403 1349.81 78.0334 1421.94 177.563 1463.26C289.558 1509.76 379.063 1521.76 510.052 1504.76C613.442 1491.34 656.563 1488.76 748.063 1450.26C797.298 1429.54 816.566 1396.19 819.832 1355.27C821.512 1334.21 823.152 1312.02 814.063 1286.76C796.72 1238.55 741.563 1206.76 714.563 1201.26C625.853 1183.19 541.563 1213.79 541.563 1213.79C541.563 1213.79 442.028 1236.59 379.063 1254.26C365.031 1258.2 340.48 1260.29 313.966 1256.94C313.6 1256.04 313.297 1255.15 313.063 1254.26Z" fill="white"/>
<path fill-rule="evenodd" clip-rule="evenodd" d="M2759.49 126.468C2732.48 102.259 2543.95 153.367 2469.94 190.149C2397.93 225.936 2298.42 305.405 2298.42 305.405C2298.42 305.405 2262.12 282.782 2224.4 280.67C2208.13 279.758 2156.13 280.67 2156.13 280.67C2156.13 280.67 2052.28 208.331 1975.37 166.466C1816.94 80.2298 1717.96 36.8547 1540.3 20.1588C1375.63 4.68331 1273.94 8.45794 1119.74 71.2085C947.709 141.213 860.552 222.273 744.681 373.296C621.193 534.248 563.067 664.174 522.147 874.321C519.578 887.519 518.596 901.546 518.508 915.76C518.122 978.414 535.112 1044.67 510.052 1059.26C482.758 1075.15 431.233 1076.03 379.063 1096.76C342.574 1111.26 299.565 1141.76 289.565 1165.26C281.562 1184.07 288.584 1199.11 299.566 1207.76C313.362 1218.63 344.066 1214.26 344.066 1214.26C344.066 1214.26 308.063 1235.26 313.063 1254.26C313.297 1255.15 313.6 1256.04 313.966 1256.94C340.48 1260.29 365.031 1258.2 379.063 1254.26C442.028 1236.59 541.563 1213.79 541.563 1213.79C541.563 1213.79 625.853 1183.19 714.563 1201.26C741.563 1206.76 796.72 1238.55 814.063 1286.76C823.152 1312.02 821.512 1334.21 819.832 1355.27C837.9 1354.68 859.342 1352.78 885.203 1349.03C967.983 1360.66 1001.72 1363.77 1085.23 1367.45C1168.75 1371.13 1228.3 1360.17 1290.26 1362.19C1283.76 1374.16 1301.47 1395.91 1318.77 1409.55C1396.12 1470.57 1564.13 1442.57 1564.13 1442.57L1725.83 1399.03C1725.83 1399.03 2732.48 1409.55 2830.5 1399.03C2914.52 1390 2949.82 1337.2 2991.98 1276.5C3001.29 1263.09 3007.04 1248.24 3010.17 1232.82C3025.52 1157.05 2993.52 1060.1 2993.52 1060.1C2993.52 1060.1 2976.93 1058.01 2975.68 1041.77C2973.18 1009.18 2967.82 949.666 2958.29 886.521C2948.45 821.32 2973.93 786.151 2891 648.498C2816 523.998 2732.48 472.764 2732.48 472.764C2732.48 472.764 2779.88 389.053 2788.99 329.088C2789.86 323.385 2790.75 317.72 2791.63 312.097L2791.63 312.068C2802.98 239.784 2813.2 174.627 2759.49 126.468ZM2678.97 208.57C2627.97 166.466 2399.43 352.245 2440.44 378.034C2466.7 394.548 2481.67 388.524 2498.16 381.887C2512.77 376.009 2528.57 369.652 2554.45 378.034C2568.85 382.696 2585.15 395.925 2601.41 409.122C2631.51 433.553 2661.47 457.872 2678.97 427.505C2697.48 395.401 2748.53 265.987 2678.97 208.57ZM2864 971.158C2878.17 918.335 2766.99 862.217 2748.48 900.635C2738.06 922.287 2763.78 957.932 2770.49 981.157C2777.6 1005.8 2782.49 1022.21 2782.49 1022.21C2782.49 1022.21 2853.94 1008.68 2864 971.158Z" fill="white"/>
<path d="M2991.98 1276.5C2991.98 1276.5 3129.68 1301.86 3166.5 1232.83C3204.32 1161.92 3146.55 1084.23 3108.87 1033.56L3108.87 1033.56L3106.94 1030.96L3105.99 1029.68C3057.24 964.016 2958.29 886.521 2958.29 886.521C2967.82 949.666 2973.18 1009.18 2975.68 1041.77C2975.68 1041.77 3139.65 1103.91 3105.99 1169C3087.09 1205.55 3010.17 1232.82 3010.17 1232.82C3007.04 1248.24 3001.29 1263.09 2991.98 1276.5Z" fill="white"/>
<path d="M2991.98 1276.5C2949.82 1337.2 2914.52 1390 2830.5 1399.03C2732.48 1409.55 1725.83 1399.03 1725.83 1399.03L1564.13 1442.57C1564.13 1442.57 1396.12 1470.57 1318.77 1409.55C1301.47 1395.91 1283.76 1374.16 1290.26 1362.19M2991.98 1276.5C2991.98 1276.5 3129.68 1301.86 3166.5 1232.83C3204.32 1161.92 3146.55 1084.23 3108.87 1033.56L3108.87 1033.56M2991.98 1276.5C3001.29 1263.09 3007.04 1248.24 3010.17 1232.82M1290.26 1362.19C1294.84 1353.77 1296.75 1350.62 1306.25 1349.04M1290.26 1362.19C1228.3 1360.17 1168.75 1371.13 1085.23 1367.45C1001.72 1363.77 967.983 1360.66 885.203 1349.03M1306.25 1349.04C1296.75 1344.83 1289.24 1333.44 1287.75 1321.67C1286.75 1313.78 1289.94 1297.53 1303.75 1291.68M1306.25 1349.04C1316.11 1354.62 1324.1 1356.61 1335.26 1357.46C1352.36 1358.77 1377.77 1345.88 1377.77 1345.88M1303.75 1291.68C1295.47 1280.85 1292.14 1272.8 1290.25 1259.05C1284.2 1214.87 1332.03 1195.78 1373.27 1185.37C1394.72 1179.95 1429.77 1185.37 1429.77 1185.37L1641.31 1060.81M1303.75 1291.68C1314.07 1300.28 1322.12 1303.5 1335.26 1304.31C1350.8 1305.26 1373.27 1291.68 1373.27 1291.68M1698.82 1026.95L1641.31 1060.81M885.203 1349.03C985.5 1334.5 1059.32 1225.76 1074.5 1201.26C1120.87 1126.4 1090 996.498 1090 996.498M885.203 1349.03C859.342 1352.78 837.9 1354.68 819.832 1355.27M2156.13 280.67C2156.13 280.67 2052.28 208.331 1975.37 166.466C1816.94 80.2298 1717.96 36.8547 1540.3 20.1588C1375.63 4.68331 1273.94 8.45794 1119.74 71.2085C947.709 141.213 860.552 222.273 744.681 373.296C621.193 534.248 563.067 664.174 522.147 874.321C519.578 887.519 518.596 901.546 518.508 915.76M2156.13 280.67C2156.13 280.67 2208.13 279.758 2224.4 280.67C2262.12 282.782 2298.42 305.405 2298.42 305.405M2156.13 280.67C2156.13 280.67 2125.02 296.391 2101.88 305.417C2080.75 313.658 2050.37 332.785 2050.37 332.785M2298.42 305.405C2298.42 305.405 2397.93 225.936 2469.94 190.149C2543.95 153.367 2732.48 102.259 2759.49 126.468C2813.2 174.627 2802.98 239.784 2791.63 312.068M2298.42 305.405C2298.42 305.405 2211.38 341.546 2163.39 378.045C2112.68 416.602 2050.37 497.512 2050.37 497.512M3105.99 1029.68C3057.24 964.016 2958.29 886.521 2958.29 886.521M3105.99 1029.68L3106.94 1030.96M3105.99 1029.68C3106.31 1030.11 3106.62 1030.53 3106.94 1030.96M2958.29 886.521C2948.45 821.32 2973.93 786.151 2891 648.498C2816 523.998 2732.48 472.764 2732.48 472.764C2732.48 472.764 2779.88 389.053 2788.99 329.088C2789.86 323.385 2790.75 317.72 2791.63 312.097M2958.29 886.521C2967.82 949.666 2973.18 1009.18 2975.68 1041.77M2975.68 1041.77C2976.93 1058.01 2993.52 1060.1 2993.52 1060.1C2993.52 1060.1 3025.52 1157.05 3010.17 1232.82M2975.68 1041.77C2975.68 1041.77 3139.65 1103.91 3105.99 1169C3087.09 1205.55 3010.17 1232.82 3010.17 1232.82M3108.87 1033.56L3106.94 1030.96M3108.87 1033.56C3108.22 1032.68 3107.58 1031.82 3106.94 1030.96M2791.63 312.068L2791.63 312.097M2791.63 312.068C2791.63 312.078 2791.63 312.088 2791.63 312.097M2488.94 706.448C2488.94 706.448 2563.79 701.34 2601.41 726.447C2633.72 748.012 2661.97 807.495 2661.97 807.495M2891 1000.11C2891 1000.11 2927.84 1005.58 2943.01 1022.22C2958.96 1039.71 2961.51 1081.16 2961.51 1081.16M2961.51 1140.63L3008.02 1155.9M2943.01 1189.05L2991.72 1225.36M2782.49 1022.21C2782.49 1022.21 2853.94 1008.68 2864 971.158C2878.17 918.335 2766.99 862.217 2748.48 900.635C2738.06 922.287 2763.78 957.932 2770.49 981.157C2777.6 1005.8 2782.49 1022.21 2782.49 1022.21ZM2782.49 1022.21C2782.49 1022.21 2761.96 1166.16 2697.97 1213.79C2681.29 1226.2 2664.69 1235.55 2647.96 1242.06M2380.43 1034.32C2371.98 1066.41 2371.98 1087.49 2380.43 1119.58C2397.12 1183 2439.98 1209.68 2498.16 1233.79C2552.09 1256.13 2600.51 1260.54 2647.96 1242.06M2647.96 1242.06C2647.96 1242.06 2631.96 1274.31 2701.97 1311.15C2752.48 1337.73 2795.49 1294.31 2795.49 1294.31M2224.4 764.865C2224.4 764.865 2257.52 760.038 2277.9 764.865C2297.43 769.488 2324.42 787.496 2324.42 787.496M2252.4 670.66C2252.4 670.66 2289.12 677.611 2309.91 689.08C2329.87 700.093 2355.42 726.447 2355.42 726.447M1698.82 955.381C1698.82 955.381 1663.62 976.487 1651.81 999.062C1640.58 1020.52 1641.31 1060.81 1641.31 1060.81M518.508 915.76C518.122 978.414 535.112 1044.67 510.052 1059.26C482.758 1075.15 431.233 1076.03 379.063 1096.76C342.574 1111.26 299.565 1141.76 289.565 1165.26C281.562 1184.07 288.584 1199.11 299.566 1207.76C313.362 1218.63 344.066 1214.26 344.066 1214.26C344.066 1214.26 308.063 1235.26 313.063 1254.26C313.297 1255.15 313.6 1256.04 313.966 1256.94M518.508 915.76C518.508 915.76 435.443 963.499 379.063 987.335C279.453 1029.45 192.657 988.702 112.063 1060.81C51.8885 1114.66 14.3788 1161.34 12.5633 1242.06C10.1403 1349.81 78.0334 1421.94 177.563 1463.26C289.558 1509.76 379.063 1521.76 510.052 1504.76C613.442 1491.34 656.563 1488.76 748.063 1450.26C797.298 1429.54 816.566 1396.19 819.832 1355.27M235.063 1127.76C235.063 1127.76 214.778 1148.28 211.563 1165.26C206.876 1190.02 222.063 1214.26 235.063 1225.36C257.202 1244.28 286.628 1253.5 313.966 1256.94M819.832 1355.27C821.512 1334.21 823.152 1312.02 814.063 1286.76C796.72 1238.55 741.563 1206.76 714.563 1201.26C625.853 1183.19 541.563 1213.79 541.563 1213.79C541.563 1213.79 442.028 1236.59 379.063 1254.26C365.031 1258.2 340.48 1260.29 313.966 1256.94M2440.44 378.034C2399.43 352.245 2627.97 166.466 2678.97 208.57C2748.53 265.987 2697.48 395.401 2678.97 427.505C2661.47 457.872 2631.51 433.553 2601.41 409.122C2585.15 395.925 2568.85 382.696 2554.45 378.034C2528.57 369.652 2512.77 376.009 2498.16 381.887C2481.67 388.524 2466.7 394.548 2440.44 378.034Z" stroke="#00AA57" stroke-width="25" stroke-linecap="round"/>
</svg>
