<svg width="3224" height="1508" viewBox="0 0 3224 1508" fill="none" xmlns="http://www.w3.org/2000/svg">
<path fill-rule="evenodd" clip-rule="evenodd" d="M199.36 1269.04C190.044 1255.62 184.294 1240.77 181.17 1225.35C181.17 1225.35 111.745 1209.8 92.8435 1173.25C59.1848 1108.16 215.654 1034.31 215.654 1034.31C218.162 1001.72 223.518 942.203 233.047 879.058C233.047 879.058 134.089 956.542 85.3423 1022.21C84.3972 1023.48 83.437 1024.77 82.4631 1026.08C44.7869 1076.75 -12.9824 1154.44 24.833 1225.35C61.6497 1294.39 199.36 1269.04 199.36 1269.04Z" fill="white"/>
<path fill-rule="evenodd" clip-rule="evenodd" d="M737.442 190.149C663.431 153.367 474.902 102.259 447.898 126.468C394.179 174.627 404.406 239.784 415.751 312.068L415.755 312.097C416.638 317.72 417.527 323.385 418.393 329.088C427.501 389.053 474.902 472.764 474.902 472.764C474.902 472.764 329.821 574.663 277.372 697.489C257.175 744.787 242.886 813.857 233.047 879.058C223.518 942.203 218.162 1001.72 215.654 1034.31C214.405 1050.54 213.862 1060.1 213.862 1060.1C213.862 1060.1 165.818 1149.59 181.17 1225.35C184.294 1240.77 190.044 1255.62 199.36 1269.04C241.52 1329.74 292.865 1390 376.887 1399.03C474.902 1409.55 1481.55 1399.03 1481.55 1399.03L1691.59 1430.08C1691.59 1430.08 1842.11 1437.45 1888.62 1409.55C1907.51 1398.22 1923.62 1374.16 1917.12 1362.19C1979.08 1360.17 2038.64 1371.13 2122.15 1367.45C2205.66 1363.77 2322.18 1349.03 2322.18 1349.03C2322.18 1349.03 2472.92 1463.83 2585.72 1481.13C2685.24 1496.39 2807.02 1502.73 2939.78 1483.76C2980.28 1477.97 3096.45 1456.88 3155.81 1376.4C3195.16 1323.05 3216.97 1280.42 3210.32 1213.25C3203.54 1144.8 3169.49 1110.83 3122.08 1063.53L3121.8 1063.26C3069.9 1011.47 3018.72 1000.35 2958.73 987.323C2934.7 982.102 2909.25 976.574 2881.77 967.999C2862.76 962.068 2846.17 959.505 2830.36 957.063C2805.47 953.221 2782.54 949.68 2755.25 933.79C2724.5 915.892 2685.24 874.321 2685.24 874.321C2685.24 874.321 2586.19 534.248 2462.7 373.296C2346.83 222.273 2259.68 141.213 2087.65 71.2085C1933.44 8.45795 1831.76 4.68331 1667.08 20.1588C1489.42 36.8547 1390.45 80.2298 1232.02 166.466C1155.1 208.331 1043.99 290.143 1043.99 290.143C1043.99 290.143 1007.03 279.302 982.979 280.67C952.698 282.393 908.968 305.405 908.968 305.405C908.968 305.405 809.453 225.936 737.442 190.149ZM766.946 378.034C807.952 352.245 579.417 166.466 528.41 208.57C458.852 265.987 509.907 395.401 528.41 427.505C545.912 457.872 575.873 433.553 605.974 409.122C622.232 395.925 638.531 382.696 652.928 378.034C678.817 369.652 694.617 376.009 709.222 381.887C725.717 388.524 740.688 394.548 766.946 378.034ZM343.382 971.158C329.213 918.335 440.396 862.217 458.899 900.635C469.327 922.287 443.602 957.932 436.896 981.157C429.781 1005.8 424.894 1022.21 424.894 1022.21C424.894 1022.21 353.445 1008.68 343.382 971.158Z" fill="white"/>
<path d="M458.899 900.635C440.396 862.217 329.213 918.335 343.382 971.158C353.445 1008.68 424.894 1022.21 424.894 1022.21C424.894 1022.21 429.781 1005.8 436.896 981.157C443.602 957.932 469.327 922.287 458.899 900.635Z" fill="#D4EBDC"/>
<path d="M215.654 1034.31C214.405 1050.54 213.862 1060.1 213.862 1060.1C213.862 1060.1 165.818 1149.59 181.17 1225.35C181.17 1225.35 111.745 1209.8 92.8435 1173.25C59.1848 1108.16 215.654 1034.31 215.654 1034.31Z" fill="#D4EBDC"/>
<path d="M766.946 378.034C807.952 352.245 579.417 166.466 528.41 208.57C458.852 265.987 509.907 395.401 528.41 427.505C545.912 457.872 575.873 433.553 605.974 409.122C622.232 395.925 638.531 382.696 652.928 378.034C678.817 369.652 694.617 376.009 709.222 381.887C725.717 388.524 740.688 394.548 766.946 378.034Z" fill="#D4EBDC"/>
<path d="M945.474 352.245L908.968 305.405M199.36 1269.04C241.52 1329.74 292.865 1390 376.887 1399.03C474.902 1409.55 1481.55 1399.03 1481.55 1399.03L1691.59 1430.08C1691.59 1430.08 1842.11 1437.45 1888.62 1409.55C1907.51 1398.22 1923.62 1374.16 1917.12 1362.19M199.36 1269.04C199.36 1269.04 61.6496 1294.39 24.8331 1225.35C-12.9825 1154.44 44.7868 1076.75 82.4632 1026.08C83.437 1024.77 84.3973 1023.48 85.3423 1022.21C134.089 956.542 233.047 879.058 233.047 879.058M199.36 1269.04C190.044 1255.62 184.294 1240.77 181.17 1225.35M1917.12 1362.19C1912.55 1353.77 1910.62 1350.61 1901.12 1349.03M1917.12 1362.19C1979.08 1360.17 2038.64 1371.13 2122.15 1367.45C2205.66 1363.77 2322.18 1349.03 2322.18 1349.03M1901.12 1349.03C1910.62 1344.82 1918.13 1333.43 1919.62 1321.66C1920.62 1313.77 1917.44 1297.52 1903.62 1291.66M1901.12 1349.03C1891.27 1354.61 1883.27 1356.6 1872.11 1357.45C1855.01 1358.76 1829.61 1345.87 1829.61 1345.87M1903.62 1291.66C1911.9 1280.84 1915.24 1272.79 1917.12 1259.03C1923.18 1214.86 1875.35 1195.77 1834.11 1185.35C1812.65 1179.93 1777.6 1185.35 1777.6 1185.35L1566.07 1060.8M1903.62 1291.66C1893.3 1300.27 1885.26 1303.49 1872.11 1304.3C1856.58 1305.25 1834.11 1291.66 1834.11 1291.66M1508.56 1026.94L1566.07 1060.8M2322.18 1349.03C2322.18 1349.03 2472.92 1463.83 2585.72 1481.13C2685.24 1496.39 2807.02 1502.73 2939.78 1483.76C2980.28 1477.97 3096.45 1456.88 3155.81 1376.4C3195.16 1323.05 3216.97 1280.42 3210.32 1213.25C3203.54 1144.8 3169.49 1110.83 3122.08 1063.53M2322.18 1349.03C2322.18 1349.03 2291.04 1245.35 2322.18 1194.83C2354.53 1142.34 2403.31 1135.77 2462.7 1133.25C2537.16 1130.1 2637.73 1213.25 2637.73 1213.25C2637.73 1213.25 2767.15 1267.53 2855.76 1257.46C2864.93 1256.41 2873.52 1255.54 2881.77 1254.56M2322.18 1349.03C2322.18 1349.03 2208.08 1284.95 2159.66 1217.99C2104.56 1141.78 2080.65 987.323 2080.65 987.323M3121.8 1063.26L3122.08 1063.53M3121.8 1063.26C3121.9 1063.35 3121.99 1063.44 3122.08 1063.53M3121.8 1063.26C3069.9 1011.47 3018.72 1000.35 2958.73 987.323C2934.7 982.102 2909.25 976.574 2881.77 967.999C2862.76 962.068 2846.17 959.505 2830.36 957.063C2805.47 953.221 2782.54 949.68 2755.25 933.79C2724.5 915.892 2685.24 874.321 2685.24 874.321M2685.24 874.321C2685.24 874.321 2586.19 534.248 2462.7 373.296C2346.83 222.273 2259.68 141.213 2087.65 71.2085C1933.44 8.45795 1831.76 4.68331 1667.08 20.1588C1489.42 36.8547 1390.45 80.2298 1232.02 166.466C1155.1 208.331 1043.99 290.143 1043.99 290.143M2685.24 874.321C2685.24 874.321 2701.32 940.907 2700.24 978.526C2699.28 1011.97 2685.24 1050.63 2685.24 1050.63C2685.24 1050.63 2705.13 1048.12 2733.74 1050.63C2787.75 1055.36 2824.95 1073.51 2876.77 1110.62C2901.08 1128.04 2922.27 1138.52 2933.28 1163.25C2941.32 1181.33 2938.84 1203.69 2922.77 1214.3M1043.99 290.143C1043.99 290.143 1007.03 279.302 982.979 280.67C952.698 282.393 908.968 305.405 908.968 305.405M1043.99 290.143C1043.99 290.143 1082.36 296.379 1105.5 305.405C1126.63 313.647 1157.01 332.774 1157.01 332.774M908.968 305.405C908.968 305.405 809.453 225.936 737.442 190.149C663.431 153.367 474.902 102.259 447.898 126.468C394.179 174.627 404.406 239.784 415.751 312.068M908.968 305.405C908.968 305.405 995.99 341.535 1043.99 378.034C1094.69 416.591 1157.01 497.501 1157.01 497.501M233.047 879.058C242.886 813.857 257.174 744.787 277.371 697.489C329.821 574.663 474.902 472.764 474.902 472.764C474.902 472.764 427.501 389.053 418.393 329.088C417.527 323.385 416.638 317.72 415.755 312.097M233.047 879.058C223.518 942.203 218.162 1001.72 215.654 1034.31M215.654 1034.31C214.405 1050.54 213.862 1060.1 213.862 1060.1C213.862 1060.1 165.818 1149.59 181.17 1225.35M215.654 1034.31C215.654 1034.31 59.1848 1108.16 92.8434 1173.25C111.745 1209.8 181.17 1225.35 181.17 1225.35M415.751 312.068L415.755 312.097M415.751 312.068C415.752 312.078 415.754 312.088 415.755 312.097M718.439 706.436C718.439 706.436 643.59 701.329 605.974 726.435C573.663 748 545.412 807.483 545.412 807.483M316.377 1000.1C316.377 1000.1 279.534 1005.57 264.37 1022.21C248.422 1039.7 245.867 1081.15 245.867 1081.15M245.867 1140.62L199.36 1155.88M264.37 1189.04L215.654 1225.35M424.894 1022.21C424.894 1022.21 353.445 1008.68 343.382 971.158C329.213 918.335 440.396 862.217 458.899 900.635C469.327 922.287 443.602 957.932 436.896 981.157C429.781 1005.8 424.894 1022.21 424.894 1022.21ZM424.894 1022.21C424.894 1022.21 445.416 1166.15 509.407 1213.78C526.086 1226.19 542.689 1235.54 559.414 1242.05M826.955 1034.31C835.402 1066.4 835.402 1087.48 826.955 1119.57C810.261 1182.99 767.403 1209.66 709.222 1233.77C655.295 1256.12 606.865 1260.53 559.414 1242.05M559.414 1242.05C559.414 1242.05 575.417 1274.3 505.406 1311.14C454.898 1337.72 411.892 1294.3 411.892 1294.3M982.979 764.854C982.979 764.854 949.857 760.026 929.471 764.854C909.949 769.476 882.964 787.484 882.964 787.484M954.974 670.649C954.974 670.649 918.258 677.599 897.466 689.069C877.501 700.081 851.959 726.435 851.959 726.435M2922.77 1214.3C2910.97 1222.1 2900.5 1222.59 2887.27 1217.99C2874.78 1213.64 2861.76 1194.83 2861.76 1194.83M2922.77 1214.3C2922.77 1214.3 2924.45 1225.12 2922.77 1231.67C2918.06 1250.09 2881.77 1254.56 2881.77 1254.56M2990.78 1119.04C2990.78 1119.04 3006.41 1154.57 3004.79 1176.41C3002.25 1210.36 2978.28 1225.35 2952.28 1236.93C2927.35 1248.03 2905.99 1251.71 2881.77 1254.56M1508.56 955.369C1508.56 955.369 1543.75 976.476 1555.57 999.051C1566.8 1020.51 1566.07 1060.8 1566.07 1060.8M766.946 378.034C807.952 352.245 579.417 166.466 528.41 208.57C458.852 265.987 509.907 395.401 528.41 427.505C545.912 457.872 575.873 433.553 605.974 409.122C622.232 395.925 638.531 382.696 652.929 378.034C678.817 369.652 694.617 376.009 709.222 381.887C725.717 388.524 740.688 394.548 766.946 378.034Z" stroke="#00AA57" stroke-width="25"/>
</svg>
