<svg width="2194" height="2025" viewBox="0 0 2194 2025" fill="none" xmlns="http://www.w3.org/2000/svg">
<path d="M378.109 892.326C378.109 892.326 344.822 1062.48 294.429 1156.72C257.584 1225.62 210.977 1249.66 179.059 1320.18C135.596 1416.21 150.218 1579.79 150.218 1579.79C150.218 1579.79 70.7538 1583.23 44.4741 1618.25C10.373 1663.7 2.86865 1710.25 25.2468 1762.48C54.0849 1829.79 127.058 1886.84 217.52 1925.94C321.139 1970.73 505.923 1946.59 505.923 1946.59C505.923 1946.59 518.243 1965.12 534.771 1974.02C558.145 1986.61 606.573 1983.27 606.573 1983.27C606.573 1983.27 637.08 2011.52 669.362 2012.48C699.617 2013.38 735.05 1980.13 735.05 1980.13C735.05 1980.13 771.431 1999.5 794.34 1993.25C814.829 1987.66 842.401 1964.4 842.401 1964.4C842.401 1964.4 851.711 1999.7 880.862 2002.86C907.777 2005.79 937.211 1989.53 937.211 1989.53C937.211 1989.53 962.587 2011.65 986.613 2012.48C1008.49 2013.24 1031.97 1992.67 1031.97 1992.67C1031.97 1992.67 1057.56 2012.48 1082.75 2012.48C1140.43 2012.48 1188.49 1962.93 1188.49 1962.93C1188.49 1962.93 1264.56 1972.14 1313.47 1974.02C1362.24 1975.89 1438.45 1974.02 1438.45 1974.02C1438.45 1974.02 1486.52 2012.48 1582.66 2012.48C1688.41 2012.48 1813.39 1983.63 1813.39 1983.63C1813.39 1983.63 1990.37 1948.66 2072.96 1877.86C2140.25 1820.17 2194.63 1757.88 2178.71 1666.33C2169.21 1611.71 2154.83 1575.8 2111.41 1541.33C2071.41 1509.58 1985.92 1516.15 1985.92 1516.15C1985.92 1516.15 1996.2 1412.3 1970.13 1321.81C1940.33 1218.42 1838.32 1022.1 1838.32 1022.1C1838.32 1022.1 1790.48 943.722 1773.38 887.49C1756.84 833.126 1752.17 740.732 1752.17 740.732C1752.17 740.732 1554.82 862.341 1419.23 912.095C1320.91 948.168 1263.08 960.73 1159.66 977.16C1018.71 999.552 936.858 991.018 794.333 983.643C715.24 979.55 669.817 981.334 592.446 964.417C506.586 945.643 378.109 892.326 378.109 892.326Z" fill="#FEFFFF"/>
<path d="M1588.95 403.273C1588.95 403.273 1718.58 451.499 1791.11 500.469C1843.22 535.649 1921.79 576.701 1914.31 603.92C1904.83 638.404 1843.82 665.788 1791.11 660.348C1736.88 654.75 1702.67 603.92 1680.56 575.706C1629.8 510.942 1588.95 403.273 1588.95 403.273Z" fill="#D4EBDC"/>
<path d="M574.986 193.251C564.822 233.149 609.732 277.893 609.732 277.893L742.396 208.925C742.396 208.925 591.837 127.103 574.986 193.251Z" fill="#D4EBDC"/>
<path fill-rule="evenodd" clip-rule="evenodd" d="M945.72 16.1182C780.431 26.7975 710.317 63.5034 609.732 106.436C586.586 116.315 561.826 126.524 533.921 136.822C478.793 157.165 444.954 143.789 385.459 174.44C276.123 230.77 219.569 347.394 189.614 465.984C159.403 585.586 202.249 676.021 233.836 741.854C267.743 812.519 312.113 849.478 378.109 892.326C398.086 905.297 430.205 913.664 457.855 923.707C521.545 946.842 584.462 964.417 584.462 964.417C584.462 964.417 793.853 993.27 928.762 992.63C1056.3 992.026 1160.91 985.801 1254.12 964.417C1365.48 938.87 1425.89 909.98 1528.94 864.114L1752.17 740.732C1752.17 740.732 1982.59 743.262 2015.39 638.389C2048.14 533.64 1885.29 416.784 1791.11 359.4C1611.07 249.694 1528.94 246.544 1528.94 246.544C1528.94 246.544 1425.39 130.987 1336.25 83.5149C1202.86 12.4721 1096.79 6.35744 945.72 16.1182ZM609.732 277.893C609.732 277.893 564.822 233.149 574.986 193.251C591.837 127.103 742.396 208.925 742.396 208.925L609.732 277.893ZM1791.11 500.469C1718.58 451.499 1588.95 403.273 1588.95 403.273C1588.95 403.273 1629.8 510.942 1680.56 575.706C1702.67 603.92 1736.88 654.75 1791.11 660.348C1843.82 665.788 1904.83 638.404 1914.31 603.92C1921.79 576.701 1843.22 535.649 1791.11 500.469Z" fill="#FEFFFF"/>
<path d="M378.109 892.326C378.109 892.326 344.822 1062.48 294.429 1156.72C257.584 1225.62 210.977 1249.66 179.059 1320.18C135.596 1416.21 150.218 1579.79 150.218 1579.79C150.218 1579.79 70.7538 1583.23 44.4741 1618.25C10.373 1663.7 2.86865 1710.25 25.2468 1762.48C54.0849 1829.79 127.058 1886.84 217.52 1925.94C321.139 1970.73 505.923 1946.59 505.923 1946.59M378.109 892.326C378.109 892.326 506.586 945.643 592.446 964.417C669.817 981.334 715.24 979.55 794.333 983.643C936.858 991.018 1018.71 999.552 1159.66 977.16C1263.08 960.73 1320.91 948.168 1419.23 912.095C1554.82 862.341 1752.17 740.732 1752.17 740.732M378.109 892.326C312.113 849.478 267.743 812.519 233.836 741.854C202.249 676.021 159.403 585.586 189.614 465.984C219.569 347.394 276.123 230.77 385.459 174.44C444.954 143.789 478.793 157.165 533.921 136.822C561.826 126.524 586.586 116.315 609.732 106.436M378.109 892.326C355.288 997.611 336.428 1069.04 297.012 1152.52M378.109 892.326C398.086 905.297 430.205 913.664 457.855 923.707C521.545 946.842 584.462 964.417 584.462 964.417C584.462 964.417 793.853 993.27 928.762 992.63C1056.3 992.026 1160.91 985.801 1254.12 964.417C1365.48 938.87 1425.89 909.98 1528.94 864.114L1752.17 740.732M505.923 1946.59C505.923 1946.59 518.243 1965.12 534.771 1974.02C558.145 1986.61 606.573 1983.27 606.573 1983.27M505.923 1946.59C505.923 1946.59 501.645 1935.37 502.334 1901.76C503.023 1868.15 549.716 1829.66 549.716 1829.66L417.048 1434.66M606.573 1983.27C606.573 1983.27 637.08 2011.52 669.362 2012.48C699.617 2013.38 735.05 1980.13 735.05 1980.13M606.573 1983.27C606.573 1983.27 595.988 1951.08 597.097 1929.98C597.955 1913.66 606.573 1889.22 606.573 1889.22M735.05 1980.13C735.05 1980.13 771.431 1999.5 794.34 1993.25C814.829 1987.66 842.401 1964.4 842.401 1964.4M735.05 1980.13C735.05 1980.13 726.507 1953.81 723.443 1936.24C720.909 1921.72 720.284 1898.63 720.284 1898.63M842.401 1964.4C842.401 1964.4 851.711 1999.7 880.862 2002.86C907.777 2005.79 937.211 1989.53 937.211 1989.53M842.401 1964.4C832.72 1944.26 830.683 1919.51 837.158 1898.63C841.176 1885.67 846.153 1874.29 851.986 1864.6M937.211 1989.53C937.211 1989.53 962.587 2011.65 986.613 2012.48C1008.49 2013.24 1031.97 1992.67 1031.97 1992.67M937.211 1989.53C937.211 1989.53 932.07 1964.84 935.08 1948.78C937.711 1934.75 950.874 1908.03 950.874 1908.03M1031.97 1992.67C1031.97 1992.67 1057.56 2012.48 1082.75 2012.48C1140.43 2012.48 1188.49 1962.93 1188.49 1962.93C1188.49 1962.93 1264.56 1972.14 1313.47 1974.02C1362.24 1975.89 1438.45 1974.02 1438.45 1974.02M1031.97 1992.67C1031.97 1992.67 1026.89 1969.5 1029.84 1955.05C1033.25 1938.39 1051.95 1917.44 1051.95 1917.44M1438.45 1974.02C1438.45 1974.02 1486.52 2012.48 1582.66 2012.48C1688.41 2012.48 1813.39 1983.63 1813.39 1983.63C1813.39 1983.63 1990.37 1948.66 2072.96 1877.86C2140.25 1820.17 2194.63 1757.88 2178.71 1666.33C2169.21 1611.71 2154.83 1575.8 2111.41 1541.33C2071.41 1509.58 1985.92 1516.15 1985.92 1516.15M1438.45 1974.02C1418.07 1942.23 1408.68 1899.58 1421.54 1864.13C1449.97 1785.75 1516.35 1765.19 1604.75 1748.14C1718.46 1726.19 1835.01 1770.28 1904.83 1726.19C1974.65 1682.1 1985.92 1516.15 1985.92 1516.15M1985.92 1516.15C1985.92 1516.15 1996.2 1412.3 1970.13 1321.81C1940.33 1218.42 1838.32 1022.1 1838.32 1022.1C1838.32 1022.1 1790.48 943.722 1773.38 887.49C1756.84 833.126 1752.17 740.732 1752.17 740.732M1752.17 740.732C1752.17 740.732 1982.59 743.262 2015.39 638.389C2048.14 533.64 1885.29 416.784 1791.11 359.4C1611.07 249.694 1528.94 246.544 1528.94 246.544C1528.94 246.544 1425.39 130.987 1336.25 83.5149C1202.86 12.4721 1096.79 6.35744 945.72 16.1182C780.431 26.7975 710.317 63.5034 609.732 106.436M148.551 1578.87L246.471 1647.82M609.732 277.893C609.732 277.893 564.822 233.149 574.986 193.251C591.837 127.103 742.396 208.925 742.396 208.925L609.732 277.893ZM609.732 277.893C609.732 277.893 527.604 356.265 511.81 491.065C496.017 625.865 521.287 682.292 584.462 763.799M584.462 763.799C584.462 763.799 680.838 828.13 748.713 829.632C810.352 830.996 845.53 814.134 894.016 776.339M584.462 763.799C584.462 763.799 554.778 785.84 533.922 788.879C478.246 796.991 404.412 719.911 404.412 719.911M890.857 208.925C890.857 208.925 960.909 194.255 1004.57 202.656C1045.77 210.58 1102.49 246.544 1102.49 246.544M1184.62 409.558C1184.62 409.558 1231.63 416.115 1260.44 425.232C1287.29 433.729 1326.78 453.446 1326.78 453.446M1168.83 478.525C1168.83 478.525 1210.51 488.821 1235.16 500.469C1261.73 513.021 1298.35 541.223 1298.35 541.223M350.713 274.758L413.889 277.893M306.488 349.995C306.488 349.995 323.352 338.83 338.078 334.321C352.992 329.753 379.142 328.051 379.142 328.051M777.142 1469.15L824.523 1817.12C824.523 1817.12 840.753 1838.97 851.986 1864.6M903.493 1469.15L900.334 1826.52C880.945 1830.8 864.495 1843.82 851.986 1864.6M1149.88 1992.67C1199.13 1964.41 1228.85 1926.84 1203.58 1861.01C1197.95 1846.36 1288.87 1654.1 1288.87 1654.1M1364.68 1444.07L1288.87 1654.1M1522.62 1469.15C1522.62 1469.15 1437.62 1493.12 1393.11 1525.58C1340.79 1563.73 1288.87 1654.1 1288.87 1654.1M27.0609 1646.03C27.0609 1646.03 82.5215 1656.26 103.406 1675.95C119.335 1690.97 132.247 1724.02 132.247 1724.02M640 136.822L609.732 106.436M1588.95 403.273C1588.95 403.273 1718.58 451.499 1791.11 500.469C1843.22 535.649 1921.79 576.701 1914.31 603.92C1904.83 638.404 1843.82 665.788 1791.11 660.348C1736.88 654.75 1702.67 603.92 1680.56 575.706C1629.8 510.942 1588.95 403.273 1588.95 403.273Z" stroke="#00AA57" stroke-width="25" stroke-linecap="round"/>
</svg>
